<?xml version="1.0" encoding="UTF-8" standalone="no"?>
<svg
   xmlns:dc="http://purl.org/dc/elements/1.1/"
   xmlns:cc="http://creativecommons.org/ns#"
   xmlns:rdf="http://www.w3.org/1999/02/22-rdf-syntax-ns#"
   xmlns:svg="http://www.w3.org/2000/svg"
   xmlns="http://www.w3.org/2000/svg"
   xmlns:sodipodi="http://sodipodi.sourceforge.net/DTD/sodipodi-0.dtd"
   xmlns:inkscape="http://www.inkscape.org/namespaces/inkscape"
   inkscape:export-ydpi="10"
   inkscape:export-xdpi="10"
   inkscape:export-filename="\\home.org.aalto.fi\holmsth3\data\Documents\test.png"
   inkscape:version="1.0 (4035a4fb49, 2020-05-01)"
   sodipodi:docname="trunkless_vector.svg"
   viewBox="0 0 3870.2361 2600.3149"
   height="2600.3149"
   width="3870.2361"
   id="svg10"
   version="1.1">
  <metadata
     id="metadata16">
    <rdf:RDF>
      <cc:Work
         rdf:about="">
        <dc:format>image/svg+xml</dc:format>
        <dc:type
           rdf:resource="http://purl.org/dc/dcmitype/StillImage" />
        <dc:title></dc:title>
      </cc:Work>
    </rdf:RDF>
  </metadata>
  <defs
     id="defs14" />
  <sodipodi:namedview
     inkscape:pagecheckerboard="true"
     inkscape:current-layer="layer2"
     inkscape:window-maximized="1"
     inkscape:window-y="-11"
     inkscape:window-x="-11"
     inkscape:cy="1376.6253"
     inkscape:cx="1717.6365"
     inkscape:zoom="0.44814263"
     showgrid="false"
     id="namedview12"
     inkscape:window-height="1910"
     inkscape:window-width="2914"
     inkscape:pageshadow="2"
     inkscape:pageopacity="0"
     guidetolerance="10"
     gridtolerance="10"
     objecttolerance="10"
     borderopacity="1"
     bordercolor="#666666"
     pagecolor="#ffffff" />
  <g
     inkscape:label="svg"
     id="layer2"
     inkscape:groupmode="layer">
    <path
       style="fill:#1f1f1f;stroke:none;stroke-width:3.77953"
       d="m 1623.9924,348.75035 h -3.7795 c -36.7181,-38.95143 -94.972,-9.27118 -139.8425,-8.55307 -21.377,0.34015 -44.5909,-11.16019 -64.252,-18.62967 -164.8894,-62.65058 -373.9427,-185.29058 -555.59064,-131.42022 -129.9628,38.54135 -240.8163,117.53348 -355.2756,186.76044 -38.7023,23.40661 -93.552,78.37606 -139.8425,81.44881 -18.4713,21.56221 -76.6427,56.88189 -105.8267,56.69292 v 11.33858 l -15.1181,-3.77953 c -10.3877,11.84882 -45.6499,22.02331 -46.308,38.20346 -1.0295,25.31528 38.0527,62.81575 48.4804,86.52095 39.1461,88.99275 77.0117,183.70393 124.7275,268.34645 17.8745,31.70645 30.2071,68.40942 51.5164,97.91623 45.0218,62.3395 101.8847,113.3405 153.5395,170.4302 28.8794,31.9181 52.989,71.7506 84.4498,100.8038 41.881,38.6835 97.1641,67.9181 142.9606,102.3836 49.7575,37.4476 93.978,90.875 135.8778,136.9134 13.8482,15.2164 33.9213,26.6154 46.1518,42.6104 52.26334,68.349 92.25834,156.3817 130.74144,233.3518 9.3279,18.6558 27.2958,77.9565 47.7619,85.1074 11.6523,4.0706 24.4649,-10.0913 31.4646,-17.4161 22.2312,-23.2667 42.6331,-49.0431 69.1087,-67.6913 -44.0466,75.4696 -99.738,168.3364 -121.338,253.2283 -19.8652,78.0813 -13.2699,163.321 0.094,241.8898 8.0428,47.3121 19.4305,140.2243 64.5506,166.2992 -0.7823,-93.4942 -17.3972,-178.9833 11.4331,-272.126 27.9534,-90.3042 73.852,-180.5782 123.5225,-260.7874 44.7723,-72.2985 98.109,-141.5811 125.8318,-222.9921 50.0372,13.7273 69.4413,-80.8705 79.3701,-117.1653 h 3.7795 c 1.5647,26.4 -3.6094,85.1981 19.7707,103.0223 15.7229,11.9811 40.2936,-2.1732 53.5408,12.1512 18.7729,20.2999 -5.0608,53.7033 18.8712,75.1295 15.1748,13.5836 38.3773,15.4091 55.2189,26.8686 62.468,42.5084 110.1656,103.578 192.7408,53.144 38.827,-23.7166 63.394,-71.5616 99.8853,-100.0139 26.7628,-20.8706 55.748,-15.4923 81.5471,-41.7978 12.6917,160.8 51.4772,313.8746 19.6384,476.2205 -12.1663,62.0409 -30.8976,125.2648 -60.4006,181.4135 -12.7899,24.3477 -47.7165,46.6734 -42.3874,75.5943 h 7.5591 c 83.5313,-89.1477 188.6815,-189.9741 223.7896,-313.7007 31.1433,-109.7537 6.4251,-233.5257 -7.2756,-343.937 -4.8945,-39.4432 5.9036,-87.961 -4.8605,-124.7245 58.628,-21.0255 5.8658,-119.2705 28.6223,-162.1492 12.635,-23.8148 38.7251,-6.3156 58.3068,-18.293 43.1584,-26.3886 105.8419,-89.7713 113.3858,-140.8176 26.3887,50.6079 -20.4132,120.0567 -19.6951,173.8583 0.4384,32.9121 15.481,69.6378 21.9629,102.0472 11.8488,59.2328 18.531,117.9855 26.3659,177.6378 4.1991,31.9861 2.1695,66.0359 1.5496,98.2677 -0.2192,11.4633 -4.7697,29.6013 8.5304,35.4973 27.7267,12.2911 83.7166,-32.073 104.9084,-46.9719 27.1483,-19.0904 47.7959,-44.7043 75.5905,-62.812 31.3626,-20.4321 68.7648,-33.4866 98.2677,-56.2167 31.6007,-24.3515 55.9975,-52.7244 90.7087,-73.5912 63.9458,-38.4453 127.3512,-74.7439 188.9764,-114.5537 15.273,-9.8645 33.8381,-7.9105 48.4913,-19.8387 34.0271,-27.6964 58.2879,-69.7134 85.4891,-103.7178 41.1062,-51.3827 85.3342,-99.9231 130.7339,-147.4016 44.1033,-46.1215 97.3682,-87.1672 137.9376,-136.0781 15.5641,-18.7615 21.2259,-40.936 34.6432,-60.3099 12.2721,-17.7184 29.4538,-29.5483 39.6019,-49.2813 49.1112,-95.47081 52.5354,-209.18547 87.9647,-309.92121 10.5335,-29.94898 33.188,-54.10394 44.2356,-83.14961 7.4419,-19.57039 6.4819,-43.64976 12.359,-64.25196 11.3651,-39.82489 28.8341,-72.86551 33.7021,-113.38205 2.1468,-17.86205 30.5159,-35.32346 26.0938,-51.44315 -4.2519,-15.51118 -36.907,-21.29386 -50.0711,-23.79212 -53.537,-10.16315 -109.7764,-9.39213 -162.5197,-22.63937 -218.0863,-54.77291 -415.5061,-192.77782 -638.7402,-223.88182 -105.0708,-14.63963 -195.1937,19.12781 -291.0236,55.58173 -96.5367,36.7234 -196.1234,78.9702 -294.8031,108.43237 -38.0825,11.36882 -85.7008,-19.11723 -124.7244,-23.03433 -50.264,-5.04529 -98.0863,4.04372 -147.4016,2.14073 -19.3398,-0.74646 -37.6101,-9.68618 -56.6929,-12.22224 -22.7074,-3.01795 -45.2031,7.00951 -68.0315,4.99843 -80.7949,-7.11685 -167.0853,-29.21613 -230.5512,42.23395 m 2048.5039,94.48818 -7.559,26.4567 -11.3386,-7.55906 c -13.4816,65.35559 -27.4205,136.73575 -49.2019,200.31496 -15.1824,44.31496 -44.4473,81.99307 -57.721,128.50393 -25.3115,88.69795 -32.4548,191.40283 -79.8954,272.06934 -62.9102,106.9719 -156.8542,180.6651 -239.6258,272.1826 -38.3169,42.3648 -75.2769,86.744 -109.7575,132.2835 -25.2812,33.3883 -48.9146,71.5275 -87.4205,90.7086 l -26.4566,-52.9133 h -3.7796 l 22.6772,52.9133 c -27.3525,8.7345 -42.788,33.0067 -68.0315,45.1692 -66.8409,32.2016 -135.5981,70.526 -196.5354,113.7335 -16.9096,11.9925 -28.3427,30.1984 -45.5018,41.435 -33.9212,22.2123 -73.0507,37.8935 -105.6642,62.5398 -48.9789,37.0167 -89.2725,85.8633 -151.1962,103.7367 0,-88.3313 -8.2659,-177.3959 -22.9833,-264.5669 -8.0353,-47.588 -29.2876,-98.88 -25.8104,-147.4016 4.8982,-68.2809 58.0119,-162.8485 -11.6788,-215.433 -3.6661,19.8274 2.8763,41.7259 -3.2428,60.4724 -19.0602,58.4088 -95.4066,128.9688 -155.4973,105.8268 1.886,12.5253 -0.223,16.5543 -11.3386,22.6771 l -9.7587,-94.4882 17.3178,-90.7086 h -3.7796 c -4.4182,29.9074 -22.0573,57.1729 -25.6063,86.9291 -6.5423,54.7918 10.9002,122.8044 17.4614,177.6378 3.326,27.7984 15.4583,71.1912 -14.5322,86.9291 -48.6804,-63.1785 -85.9011,-5.9414 -132.2835,18.8977 l -26.1203,-154.9607 7.0753,-166.2992 4.5845,-200.3149 48.4762,-154.96063 c -19.6913,19.49853 -22.2765,46.97953 -31.9899,71.81103 -25.3719,64.8604 -34.6015,119.1193 -36.0415,188.9764 h -3.7796 c -4.165,-30.9052 -16.3842,-94.3824 -38.6003,-116.3188 -21.8646,-21.5924 -52.8983,-28.9587 -78.565,-44.1373 -35.418,-20.9424 -64.2633,-47.9811 -105.8268,-56.7987 -97.663,-20.7194 -200.8668,59.1458 -238.1102,145.4437 66.9808,-54.1757 105.0708,-145.3455 207.874,-139.491 46.526,2.6532 79.2075,25.8255 117.1653,49.9351 28.8114,18.2967 69.1805,26.4832 92.4737,52.5657 13.6517,15.2882 11.6032,34.0573 18.3572,52.1083 31.2227,83.4293 32.9197,161.401 22.5335,249.4489 -4.0781,34.5335 14.6079,91.9181 -7.5401,119.8525 -27.0652,34.1292 -63.9043,29.76 -103.1471,31.476 -79.1206,3.4658 -160.4069,21.77 -238.1102,4.8869 -42.2967,-9.1918 -90.5348,-24.0076 -90.7087,-73.0658 l -7.559,3.7795 -3.7796,-52.9134 h 3.7796 l 3.7795,11.3386 h 3.7795 l -34.5071,-400.6299 -1.8557,-83.1496 43.9219,-98.26776 -56.6929,98.26776 h -3.7796 l -18.8976,-22.67721 -3.7795,15.11811 c 51.2693,14.8725 14.7552,113.828 21.222,151.1811 23.2932,134.5134 46.7074,293.2913 -4.4069,423.3071 -13.0961,33.309 -19.1433,98.3244 -58.3899,109.6063 -10.8322,-66.8863 -64.4674,-113.023 -136.063,-86.9291 0.045,-71.1723 46.6809,-138.2741 61.7499,-207.8741 17.4652,-80.674 8.5909,-164.0541 14.1808,-245.6692 3.0727,-44.8971 22.3143,-84.9374 26.1165,-128.504 -18.4441,11.161 -25.4249,40.732 -32.3527,60.4725 -23.3008,66.3836 -0.4649,149.794 -10.3559,219.2126 -5.1402,36.0604 -5.7147,74.3735 -15.6019,109.6062 -15.1484,53.9793 -40.9928,104.761 -56.0353,158.7402 -7.4003,26.5625 10.4353,43.7745 6.3534,68.0315 -16.2142,96.3439 -90.3156,183.4507 -167.9132,238.1102 l -118.0988,-226.7716 -48.2004,-94.4882 c -32.89324,2.8233 -43.74044,-28.5581 -64.39934,-48.7937 -53.8583,-52.766 -105.5736,-104.9915 -162.3723,-154.6054 -28.9209,-25.2623 -65.7298,-40.5581 -94.4315,-65.7411 -69.7096,-61.1603 -132.2116,-146.1807 -187.1811,-218.0787 -18.1304,-23.7165 -45.1687,-39.1219 -61.9162,-64.59213 -60.1446,-91.47212 -100.7855,-202.0611 -143.5456,-302.3622 -19.5258,-45.80031 -54.8315,-88.65259 -68.5156,-136.06298 121.6282,-63.99496 244.7319,-130.03465 359.0551,-206.35087 100.4485,-67.05751 221.7411,-154.59061 347.7165,-160.11439 198.70864,-8.71332 361.13774,120.60321 548.03154,161.00636 32.3679,6.99591 71.5578,-14.98582 105.8268,-11.75433 14.9254,1.40977 28.7924,17.16662 41.915,16.74709 14.982,-0.48 31.2907,-22.25764 45.0141,-28.84876 33.5736,-16.12081 76.1802,-24.42708 113.3859,-23.70935 28.267,0.54539 55.5439,13.01858 83.1496,13.57228 24.2343,0.48643 46.9795,-8.26129 71.811,-5.56119 16.902,1.8376 32.3263,12.21014 49.1338,12.56352 44.3301,0.93203 87.035,-9.54066 132.2835,-5.01619 42.1682,4.21645 90.0321,34.50142 132.2835,26.87433 40.9133,-7.38897 81.9968,-31.70645 120.9448,-46.22664 146.6873,-54.68674 294.07,-128.03036 453.5433,-120.9857 33.9326,1.49896 65.7109,15.27799 98.2677,23.49052 124.6337,31.43887 235.8463,93.44806 355.2756,138.6308 71.8375,27.18236 154.8284,52.26331 230.5512,66.54236 56.383,10.63559 111.3298,14.09386 166.2992,31.9748 m -1300.1574,370.3937 h 7.559 l 2.6986,-94.48819 -17.8167,-94.48819 h 3.7795 l 3.7796,30.23622 h 3.7795 l 3.7795,-79.37007 c 62.2337,-36.95244 85.3569,-116.23559 143.6221,-155.52756 35.6674,-24.04913 83.4519,-25.61008 124.7244,-30.74646 58.8926,-7.3285 121.8784,-21.81165 181.4173,-15.1559 52.2066,5.83937 106.1102,33.67181 158.7401,44.20157 70.201,14.04095 141.7701,20.87433 211.6536,36.33638 21.3619,4.72441 56.6891,23.27055 71.811,-0.0529 -34.7339,-2.83843 -67.8047,-15.86646 -102.0472,-21.59622 -82.1896,-13.75748 -164.3566,-25.21701 -245.6693,-44.55685 -33.5244,-7.97481 -63.5414,-27.72662 -98.2677,-31.45701 -51.9156,-5.57858 -107.4331,6.81827 -158.7402,13.96913 -41.8545,5.83181 -97.4891,5.36693 -135.4205,25.30394 -38.8535,20.42079 -55.7367,57.91748 -84.1322,88.57323 -30.1644,32.56063 -82.2463,69.39212 -94.9455,113.38582 -8.9575,31.0337 5.3177,67.71024 11.3801,98.26771 7.748,39.05386 8.315,77.52189 8.315,117.16536 M 565.72466,488.59286 c 84.3704,-24.12094 155.5956,-80.87432 241.8897,-102.44409 61.1263,-15.27685 124.3049,-6.18708 185.1969,5.16284 29.83184,5.55968 117.77004,11.69007 128.50394,44.36787 55.6157,2.77417 124.7132,51.31086 173.8583,76.41827 18.0397,9.21826 46.3219,15.56031 57.5509,33.88724 10.5676,17.25354 4.218,54.04724 9.1729,74.89134 13.4589,56.6022 39.1295,107.96976 46.6621,166.2992 14.1165,-15.06519 12.3552,-33.89858 6.7691,-52.91338 -12.6501,-43.04504 -33.2372,-83.61827 -39.651,-128.50393 -4.4863,-31.40032 10.526,-60.38929 -20.0504,-80.8441 -40.3087,-26.97071 -88.7584,-43.40409 -132.2646,-64.01007 -111.5113,-52.82646 -234.43664,-112.44473 -362.83474,-100.1726 -52.3502,5.00031 -99.6094,24.06425 -147.4015,44.71181 -40.6904,17.57858 -124.4599,44.24315 -147.4016,83.1496 m 105.8268,-45.35433 3.7795,3.77953 -3.7795,-3.77953 M 3321.0003,465.9157 v 7.55905 l 86.9291,18.89764 c -18.6482,-19.58929 -60.5027,-25.89354 -86.9291,-26.45669 m -2124.0946,3.77953 3.7797,3.77952 -3.7797,-3.77952 m 7.5592,3.77952 3.7795,3.77953 -3.7795,-3.77953 m -631.18124,18.89764 3.7796,3.77953 -3.7796,-3.77953 m 2861.10244,3.77953 v 3.77953 h 15.1181 l -15.1181,-3.77953 m 40.3162,8.81764 2.5172,1.26236 -2.5172,-1.26236 m -3222.67844,21.41858 -3.7795,3.77953 3.7795,-3.77953 m 1099.84264,22.67716 3.7795,3.77953 -3.7795,-3.77953 m -11.3386,3.77953 3.7795,79.37008 h 3.7795 c 0.9525,-23.73921 7.4117,-59.60693 -7.559,-79.37008 m 1062.0472,30.23622 3.7795,3.77953 -3.7795,-3.77953 m -823.937,3.77953 -7.559,11.33858 7.559,-11.33858 m -7.559,22.67716 -22.6772,26.4567 22.6772,-26.4567 m -52.9134,147.40157 h 3.7795 l 49.1339,-124.7244 c -38.143,14.41134 -58.8246,87.55275 -52.9134,124.7244 m 559.37,18.89764 35.4785,75.59055 -5.2423,128.50389 h 3.7796 l 22.6771,-64.25192 45.3544,-3.77953 v -3.77953 c -18.3232,1.31528 -26.7364,-1.41732 -34.0158,-18.89763 h -3.7795 v 15.11811 h -3.7795 l -3.7796,-30.23622 30.2363,7.55905 v 15.11811 h 3.7795 v -11.33858 l 30.2362,7.55905 -3.7795,15.11811 60.4724,-30.23622 v -3.77952 l -52.9134,3.77952 37.7953,-37.79527 c -29.8734,15.23149 -75.9194,50.50204 -106.8586,13.62897 -20.194,-24.06425 -20.8856,-67.18488 -55.6611,-77.88094 m -566.9291,56.69291 c -4.543,24.10583 -12.2759,70.83213 -48.9864,49.76882 -14.6193,-8.38677 -22.3219,-23.43307 -37.9427,-30.87118 l 34.0157,41.5748 -49.1338,-15.11811 c 3.6737,21.37701 21.5546,20.70048 35.9244,33.31654 9.5924,8.41701 13.8028,20.72693 24.7143,28.18393 28.2671,19.31713 39.4621,10.58646 56.5266,44.32633 h 3.7795 l -9.0935,-98.26774 -6.0246,-37.79528 -3.7795,-15.11811 m 94.4882,56.69292 v 15.11811 h 3.7795 l 3.7796,-15.11811 h -7.5591 m -11.3386,3.77952 3.7795,3.77953 -3.7795,-3.77953 m -83.1496,3.77953 v 7.55906 h -7.559 v -7.55906 h 7.559 m -18.8976,3.77953 18.8976,30.23622 h -22.6772 v -3.77953 l 11.3386,-3.77953 c -12.5253,-5.31779 -17.2195,-8.87811 -15.1181,-22.67716 h 7.5591 m -18.8977,7.55905 11.3386,18.89764 c -10.2879,-4.10457 -15.1294,-7.75937 -11.3386,-18.89764 m 128.504,0 3.7795,3.77953 -3.7795,-3.77953 m 370.3937,94.48819 30.2362,60.4724 h 3.7795 l -34.0157,-60.4724 m 313.7007,26.4567 26.4567,-15.1181 -26.4567,15.1181 m -1704.56694,0 c -20.6627,12.0605 -59.8791,21.4904 -68.0315,45.3543 18.7729,-8.7647 62.1468,-24.5367 68.0315,-45.3543 m 1700.78744,3.7795 c -6.051,32.1185 -17.828,79.8463 0,109.6063 v -109.6063 m -257.0079,22.6772 7.5591,37.7953 h 3.7795 l -11.3386,-37.7953 m -298.5826,11.3386 v 3.7795 l 98.2677,-3.7795 c -28.9285,-12.9865 -68.7345,-9.3392 -98.2677,0 m 113.3858,15.1181 22.6772,15.1181 v -3.7795 l -22.6772,-11.3386 m -245.6693,90.7086 c -17.5408,24.9449 -22.0573,56.8252 -22.6771,86.9292 h 3.7795 l 18.8976,-86.9292 m 243.5301,75.7531 c -14.9518,9.6794 -9.1994,41.4841 -9.1994,56.5304 0,44.0088 -9.9137,92.7723 -2.022,136.063 5.0041,27.4734 24.1323,44.0428 51.1559,28.3956 53.9603,-31.2454 89.5861,-97.5836 52.0932,-153.12 -13.3304,-19.748 -61.0583,-87.9156 -92.0277,-67.869 m -145.2057,3.7795 c -53.673,25.9692 -75.6775,126.1153 -44.039,173.692 14.6532,22.0347 54.8409,60.2684 85.3341,47.9395 16.1084,-6.5121 19.0111,-29.057 17.8923,-44.1562 -3.3638,-45.3997 -8.4283,-99.6888 -19.7442,-143.622 -4.6073,-17.8696 -16.2142,-45.0898 -39.4432,-33.8533 m 555.5339,3.6171 15.1181,3.7795 -15.1181,-3.7795 m -400.6299,3.7795 18.8976,11.3386 c -2.3169,44.1751 -26.332,173.9867 49.1338,136.0629 -7.2491,15.549 -52.0818,72.79 -69.6453,44.2848 -8.1713,-13.2586 -6.4479,-33.1767 -5.7978,-48.0643 1.7764,-40.5619 -8.0391,-106.7981 7.4117,-143.622 m 389.2913,15.1181 18.8976,-3.7795 -18.8976,3.7795 m -389.2913,3.7795 3.7795,3.7795 -3.7795,-3.7795 m 400.6299,3.7795 -15.1181,15.1182 h 22.6771 l -7.559,-15.1182 m -570.7087,11.3386 c -10.7565,33.8646 -17.6768,69.978 3.7606,101.6958 10.4013,15.3902 64.0971,34.2916 53.8319,55.8992 -11.8829,25.0167 -61.4778,-18.8788 -70.6961,-29.7487 -27.6435,-32.5946 -14.1203,-98.9593 13.1036,-127.8463 m 1311.496,143.6221 3.7796,15.1181 h 3.7795 l -7.5591,-15.1181 m -1258.5826,3.7795 3.7795,3.7795 -3.7795,-3.7795 m -22.6772,3.7795 3.7796,3.7796 -3.7796,-3.7796 m -120.9448,3.7796 v 18.8976 h -3.7796 l 3.7796,-18.8976 m 1409.7637,7.559 3.7795,3.7795 -3.7795,-3.7795 m -1920,15.1181 3.7795,3.7795 -3.7795,-3.7795 m -56.6929,68.0315 v 3.7795 c 31.6838,-4.868 68.7458,-42.7502 86.9291,-68.0315 l -86.9291,64.252 m 30.2362,-45.3543 -30.2362,30.2362 c 12.1549,-6.2098 30.5953,-15.2391 30.2362,-30.2362 m 525.3544,60.4724 c 7.2567,53.5937 61.7386,55.9635 105.8267,67.5931 75.1824,19.835 145.8293,5.0079 222.9922,-2.2073 55.4683,-5.1855 82.6658,6.1947 132.2834,-27.5905 16.6148,28.611 40.4523,95.0589 3.6133,117.3997 -23.5578,14.2828 -49.1566,6.3193 -71.5881,26.6154 -52.4031,47.4142 -95.6371,145.9465 -185.2497,105.5471 -18.4819,-8.3301 -29.3896,-26.1581 -45.3581,-37.9087 l 3.7795,-7.559 -78.8258,-35.5049 -3.6548,-47.6447 -15.7871,-41.5748 c 66.1304,-8.3566 75.2693,49.9426 132.2834,62.7628 61.4363,13.8217 101.9225,-39.5376 151.1811,-65.3027 22.2917,-11.6598 47.1156,-13.7083 60.4725,10.0989 h 7.559 c 0.8202,-26.1997 -27.4318,-45.9099 -52.9134,-36.0038 -43.2793,16.8227 -77.2686,64.063 -124.7244,72.5556 -60.2456,10.7792 -78.4441,-48.7672 -128.5039,-65.0192 -29.7562,-9.6604 -56.3981,26.589 -86.9102,23.4709 -30.4403,-3.1106 -36.0454,-96.7068 -26.4756,-119.7279 m 22.6771,49.1339 3.7796,3.7795 -3.7796,-3.7795 m -411.9685,782.3622 c -32.3339,-27.1711 -35.1459,-126.1493 -37.8898,-166.2992 -10.0725,-147.4848 46.3143,-253.9465 112.664,-381.7323 31.3096,-60.2986 95.4936,-160.4032 83.966,-230.5512 41.3102,0 114.6028,2.2828 113.1628,60.4724 -2.0334,82.4353 -76.5619,163.8917 -117.033,230.5512 -87.5566,144.2117 -176.4738,312.8051 -154.87,487.5591 m 434.6457,-774.8032 3.7795,3.7796 -3.7795,-3.7796 m 396.8504,0 3.7795,3.7796 -3.7795,-3.7796 m 22.6772,789.9213 c -4.2104,-25.2851 25.0015,-62.6117 33.8116,-86.9292 19.9899,-55.1924 31.5628,-119.5389 40.165,-177.6377 19.9673,-134.9065 -9.8381,-277.6857 -24.2154,-411.9685 -4.8,-44.8215 15.9043,-85.8104 67.4041,-86.7175 16.4712,-0.291 33.0104,6.017 39.2958,22.5222 16.7433,43.9861 4.6223,118.0951 10.027,166.2425 12.4989,111.3222 34.749,237.0104 -11.0475,343.937 -36.9638,86.3055 -109.6857,150.2513 -155.4406,230.5512 m -328.8189,-748.3465 3.7795,3.7796 -3.7795,-3.7796 m 298.5826,0 -3.7795,26.4567 c 11.5465,-7.5061 11.845,-15.6283 3.7795,-26.4567 m -253.2283,30.2363 3.7795,3.7795 -3.7795,-3.7795 m 75.5905,0 3.7796,3.7795 -3.7796,-3.7795 m -49.1338,26.4566 3.7795,3.7796 -3.7795,-3.7796 m 75.5905,30.2363 3.7796,3.7795 -3.7796,-3.7795 m 26.4567,0 3.7796,3.7795 -3.7796,-3.7795 m 11.3386,0 3.7795,3.7795 -3.7795,-3.7795 m -49.1338,3.7795 3.7795,3.7795 -3.7795,-3.7795 m 25.1981,1.2586 2.5171,1.2623 -2.5171,-1.2623 m 31.4948,-1.2586 3.7795,15.1181 h 3.7795 l 3.7795,-15.1181 h -11.3385 m 41.5748,0 3.7795,3.7795 -3.7795,-3.7795 m -11.3386,3.7795 7.559,7.5591 v -7.5591 h -7.559 m -41.5748,3.7795 3.7795,3.7796 -3.7795,-3.7796 m 26.4567,3.7796 3.7795,11.3386 h 3.7795 l 3.7796,-7.5591 z"
       id="path27-4"
       inkscape:export-filename="\\home.org.aalto.fi\holmsth3\data\Documents\test.png"
       inkscape:export-xdpi="71.800003"
       inkscape:export-ydpi="71.800003" />
  </g>
</svg>
